<svg width="18" height="20" viewBox="0 0 18 20" fill="none" xmlns="http://www.w3.org/2000/svg">
<path d="M16.5 8.28088C16.5 11.3403 12.1585 16.3192 10.0818 18.5257C9.48668 19.1581 8.51332 19.1581 7.9182 18.5257C5.84152 16.3192 1.5 11.3403 1.5 8.28088C1.5 4.25976 4.85786 1 9 1C13.1421 1 16.5 4.25976 16.5 8.28088Z" stroke="black" stroke-width="1.5"/>
<path d="M11.7273 7.90335C11.7273 9.4284 10.5062 10.6647 9 10.6647C7.49377 10.6647 6.27273 9.4284 6.27273 7.90335C6.27273 6.37831 7.49377 5.14201 9 5.14201C10.5062 5.14201 11.7273 6.37831 11.7273 7.90335Z" stroke="black" stroke-width="1.5"/>
</svg>
